# xmcd
#
# Track frame offsets: 
#        150
#        6291
#        20607
#        34115
#        47611
#        62304
#        75032
#        85052
#        96766
#        111904
#        123295
#        134513
#        148612
#        163534
#        177208
#        185624
#        195637
#        209688
#
# Disc length: 2972 seconds
#
# Revision: 0
# Processed by: cddbd v1.5.2PL0 Copyright (c) Steve Scherf et al.
# Submitted via: ExactAudioCopy v0.99pb5
#
DISCID=ea0b9a12
DTITLE=Bradford Bog People - Fully Peated
DYEAR=2010
DGENRE=Bluegrass
TTITLE0=Sugar Hill
TTITLE1=Say Darling Say
TTITLE2=Poor Howard
TTITLE3=Benton's Dream
TTITLE4=Lazy John
TTITLE5=Little Maggie
TTITLE6=Old Christmas Morning
TTITLE7=Turtle Dove
TTITLE8=Going Back To Yew Piney Mountain
TTITLE9=Duck River
TTITLE10=Ground Hog
TTITLE11=A Roving On A Winter's Night
TTITLE12=Elzick's Farewell
TTITLE13=All My Tears
TTITLE14=Chinquapin Hunting
TTITLE15=Give The Fiddler A Dram
TTITLE16=Ebb And Flow
TTITLE17=Sugar Hill (extended)
EXTD=
EXTT0=
EXTT1=
EXTT2=
EXTT3=
EXTT4=
EXTT5=
EXTT6=
EXTT7=
EXTT8=
EXTT9=
EXTT10=
EXTT11=
EXTT12=
EXTT13=
EXTT14=
EXTT15=
EXTT16=
EXTT17=
PLAYORDER=
